<?xml version="1.0" encoding="UTF-8" standalone="no"?>
<!-- Created with Inkscape (http://www.inkscape.org/) -->

<svg
   xmlns:dc="http://purl.org/dc/elements/1.1/"
   xmlns:cc="http://creativecommons.org/ns#"
   xmlns:rdf="http://www.w3.org/1999/02/22-rdf-syntax-ns#"
   xmlns:svg="http://www.w3.org/2000/svg"
   xmlns="http://www.w3.org/2000/svg"
   xmlns:sodipodi="http://sodipodi.sourceforge.net/DTD/sodipodi-0.dtd"
   xmlns:inkscape="http://www.inkscape.org/namespaces/inkscape"
   width="210mm"
   height="297mm"
   viewBox="0 0 744.09448819 1052.3622047"
   id="svg31657"
   version="1.1"
   inkscape:version="0.91 r13725"
   sodipodi:docname="DMT_Cube.svg">
  <defs
     id="defs31659" />
  <sodipodi:namedview
     id="base"
     pagecolor="#ffffff"
     bordercolor="#666666"
     borderopacity="1.0"
     inkscape:pageopacity="0.0"
     inkscape:pageshadow="2"
     inkscape:zoom="0.52705078"
     inkscape:cx="1037.4533"
     inkscape:cy="3113.997"
     inkscape:document-units="px"
     inkscape:current-layer="layer1"
     showgrid="false"
     inkscape:window-width="1680"
     inkscape:window-height="953"
     inkscape:window-x="0"
     inkscape:window-y="1"
     inkscape:window-maximized="1" />
  <metadata
     id="metadata31662">
    <rdf:RDF>
      <cc:Work
         rdf:about="">
        <dc:format>image/svg+xml</dc:format>
        <dc:type
           rdf:resource="http://purl.org/dc/dcmitype/StillImage" />
        <dc:title></dc:title>
      </cc:Work>
    </rdf:RDF>
  </metadata>
  <g
     inkscape:label="Layer 1"
     inkscape:groupmode="layer"
     id="layer1">
    <rect
       y="-40.939926"
       x="-91.072823"
       height="956.69293"
       width="956.69293"
       id="rect36139"
       style="opacity:0.8;fill:#00ff00;fill-opacity:0.26258994;fill-rule:nonzero;stroke:none;stroke-width:7.08661413;stroke-linecap:butt;stroke-linejoin:bevel;stroke-miterlimit:4;stroke-dasharray:none;stroke-dashoffset:0;stroke-opacity:1" />
    <rect
       style="opacity:0.8;fill:#00ff00;fill-opacity:0.26258994;fill-rule:nonzero;stroke:none;stroke-width:7.08661413;stroke-linecap:butt;stroke-linejoin:bevel;stroke-miterlimit:4;stroke-dasharray:none;stroke-dashoffset:0;stroke-opacity:1"
       id="rect36137"
       width="885.82678"
       height="885.82678"
       x="-55.639748"
       y="-5.5068512" />
    <rect
       y="837.56226"
       x="-913.73767"
       height="35.433071"
       width="921.25983"
       id="rect36143"
       style="opacity:0.8;fill:#00ff00;fill-opacity:0.26258994;fill-rule:nonzero;stroke:none;stroke-width:7.08661413;stroke-linecap:butt;stroke-linejoin:bevel;stroke-miterlimit:4;stroke-dasharray:none;stroke-dashoffset:0;stroke-opacity:1"
       transform="matrix(0,-1,1,0,0,0)" />
    <path
       style="opacity:0.8;fill:#00ff00;fill-opacity:0.26258994;fill-rule:nonzero;stroke:none;stroke-width:7.08661413;stroke-linecap:butt;stroke-linejoin:bevel;stroke-miterlimit:4;stroke-dasharray:none;stroke-dashoffset:0;stroke-opacity:1"
       d="m -82.866119,-1457.2973 0,35.4336 885.828109,0 0,-17.7168 17.71681,0 0,17.7168 17.71483,0 0,-35.4336 -921.259749,0 z"
       id="rect36141"
       inkscape:connector-curvature="0" />
    <path
       style="opacity:0.8;fill:#00ff00;fill-opacity:0.26258994;fill-rule:nonzero;stroke:none;stroke-width:7.08661413;stroke-linecap:butt;stroke-linejoin:bevel;stroke-miterlimit:4;stroke-dasharray:none;stroke-dashoffset:0;stroke-opacity:1"
       d="m -47.432526,-1535.2487 0,17.7149 -35.433593,0 0,17.7168 956.693359,0 0,-17.7168 -35.43359,0 0,-17.7149 -885.826176,0 z"
       id="rect36157"
       inkscape:connector-curvature="0" />
    <rect
       style="opacity:0.8;fill:#00ff00;fill-opacity:0.26258994;fill-rule:nonzero;stroke:none;stroke-width:7.08661413;stroke-linecap:butt;stroke-linejoin:bevel;stroke-miterlimit:4;stroke-dasharray:none;stroke-dashoffset:0;stroke-opacity:1"
       id="rect36162"
       width="885.82678"
       height="35.433071"
       x="-82.866119"
       y="-1496.2737" />
    <path
       inkscape:connector-curvature="0"
       id="path36200"
       d="m -47.432526,-1691.1513 0,17.7149 -35.433593,0 0,17.7167 956.693359,0 0,-17.7167 -35.43359,0 0,-17.7149 -885.826176,0 z"
       style="opacity:0.8;fill:#00ff00;fill-opacity:0.26258994;fill-rule:nonzero;stroke:none;stroke-width:7.08661413;stroke-linecap:butt;stroke-linejoin:bevel;stroke-miterlimit:4;stroke-dasharray:none;stroke-dashoffset:0;stroke-opacity:1" />
    <rect
       y="-1652.1764"
       x="-82.866119"
       height="35.433071"
       width="885.82678"
       id="rect36202"
       style="opacity:0.8;fill:#00ff00;fill-opacity:0.26258994;fill-rule:nonzero;stroke:none;stroke-width:7.08661413;stroke-linecap:butt;stroke-linejoin:bevel;stroke-miterlimit:4;stroke-dasharray:none;stroke-dashoffset:0;stroke-opacity:1" />
    <path
       style="opacity:0.8;fill:#00ff00;fill-opacity:0.26258994;fill-rule:nonzero;stroke:none;stroke-width:7.08661413;stroke-linecap:butt;stroke-linejoin:bevel;stroke-miterlimit:4;stroke-dasharray:none;stroke-dashoffset:0;stroke-opacity:1"
       d="m -47.432526,-1769.1027 0,17.7149 -35.433593,0 0,17.7167 956.693359,0 0,-17.7167 -35.43359,0 0,-17.7149 -885.826176,0 z"
       id="path36206"
       inkscape:connector-curvature="0" />
    <rect
       style="opacity:0.8;fill:#00ff00;fill-opacity:0.26258994;fill-rule:nonzero;stroke:none;stroke-width:7.08661413;stroke-linecap:butt;stroke-linejoin:bevel;stroke-miterlimit:4;stroke-dasharray:none;stroke-dashoffset:0;stroke-opacity:1"
       id="rect36208"
       width="885.82678"
       height="35.433071"
       x="-82.866119"
       y="-1730.1277" />
    <path
       inkscape:connector-curvature="0"
       id="path36212"
       d="m -47.432526,-1613.2 0,17.7149 -35.433593,0 0,17.7167 956.693359,0 0,-17.7167 -35.43359,0 0,-17.7149 -885.826176,0 z"
       style="opacity:0.8;fill:#00ff00;fill-opacity:0.26258994;fill-rule:nonzero;stroke:none;stroke-width:7.08661413;stroke-linecap:butt;stroke-linejoin:bevel;stroke-miterlimit:4;stroke-dasharray:none;stroke-dashoffset:0;stroke-opacity:1" />
    <rect
       y="-1574.2251"
       x="-82.866119"
       height="35.433071"
       width="885.82678"
       id="rect36214"
       style="opacity:0.8;fill:#00ff00;fill-opacity:0.26258994;fill-rule:nonzero;stroke:none;stroke-width:7.08661413;stroke-linecap:butt;stroke-linejoin:bevel;stroke-miterlimit:4;stroke-dasharray:none;stroke-dashoffset:0;stroke-opacity:1" />
    <path
       inkscape:connector-curvature="0"
       style="opacity:0.8;fill:#00ff00;fill-opacity:0.26258994;fill-rule:nonzero;stroke:none;stroke-width:7.08661413;stroke-linecap:butt;stroke-linejoin:bevel;stroke-miterlimit:4;stroke-dasharray:none;stroke-dashoffset:0;stroke-opacity:1"
       d="m -82.866119,-1418.3204 0,35.4336 17.716797,0 0,-17.7168 17.714844,0 0,17.7168 885.828118,0 0,-35.4336 -921.259759,0 z"
       id="rect36145" />
    <path
       id="path36222"
       d="m -82.866119,-1340.3666 0,35.4336 17.716797,0 0,-17.7168 17.714844,0 0,17.7168 885.828118,0 0,-35.4336 -921.259759,0 z"
       style="opacity:0.8;fill:#00ff00;fill-opacity:0.26258994;fill-rule:nonzero;stroke:none;stroke-width:7.08661413;stroke-linecap:butt;stroke-linejoin:bevel;stroke-miterlimit:4;stroke-dasharray:none;stroke-dashoffset:0;stroke-opacity:1"
       inkscape:connector-curvature="0" />
    <path
       inkscape:connector-curvature="0"
       id="path36224"
       d="m -82.866119,-1379.3435 0,35.4336 885.828109,0 0,-17.7168 17.71681,0 0,17.7168 17.71483,0 0,-35.4336 -921.259749,0 z"
       style="opacity:0.8;fill:#00ff00;fill-opacity:0.26258994;fill-rule:nonzero;stroke:none;stroke-width:7.08661413;stroke-linecap:butt;stroke-linejoin:bevel;stroke-miterlimit:4;stroke-dasharray:none;stroke-dashoffset:0;stroke-opacity:1" />
    <path
       inkscape:connector-curvature="0"
       style="opacity:0.8;fill:#00ff00;fill-opacity:0.26258994;fill-rule:nonzero;stroke:none;stroke-width:7.08661413;stroke-linecap:butt;stroke-linejoin:bevel;stroke-miterlimit:4;stroke-dasharray:none;stroke-dashoffset:0;stroke-opacity:1"
       d="m -82.866119,-1262.4128 0,35.4336 17.716797,0 0,-17.7168 17.714844,0 0,17.7168 885.828118,0 0,-35.4336 -921.259759,0 z"
       id="path36228" />
    <path
       style="opacity:0.8;fill:#00ff00;fill-opacity:0.26258994;fill-rule:nonzero;stroke:none;stroke-width:7.08661413;stroke-linecap:butt;stroke-linejoin:bevel;stroke-miterlimit:4;stroke-dasharray:none;stroke-dashoffset:0;stroke-opacity:1"
       d="m -82.866119,-1301.3897 0,35.4336 885.828109,0 0,-17.7168 17.71681,0 0,17.7168 17.71483,0 0,-35.4336 -921.259749,0 z"
       id="path36230"
       inkscape:connector-curvature="0" />
    <path
       id="path36234"
       d="m -82.866119,-1184.459 0,35.4336 17.716797,0 0,-17.7168 17.714844,0 0,17.7168 885.828118,0 0,-35.4336 -921.259759,0 z"
       style="opacity:0.8;fill:#00ff00;fill-opacity:0.26258994;fill-rule:nonzero;stroke:none;stroke-width:7.08661413;stroke-linecap:butt;stroke-linejoin:bevel;stroke-miterlimit:4;stroke-dasharray:none;stroke-dashoffset:0;stroke-opacity:1"
       inkscape:connector-curvature="0" />
    <path
       inkscape:connector-curvature="0"
       id="path36236"
       d="m -82.866119,-1223.4359 0,35.4336 885.828109,0 0,-17.7168 17.71681,0 0,17.7168 17.71483,0 0,-35.4336 -921.259749,0 z"
       style="opacity:0.8;fill:#00ff00;fill-opacity:0.26258994;fill-rule:nonzero;stroke:none;stroke-width:7.08661413;stroke-linecap:butt;stroke-linejoin:bevel;stroke-miterlimit:4;stroke-dasharray:none;stroke-dashoffset:0;stroke-opacity:1" />
    <path
       inkscape:connector-curvature="0"
       style="opacity:0.8;fill:#00ff00;fill-opacity:0.26258994;fill-rule:nonzero;stroke:none;stroke-width:7.08661413;stroke-linecap:butt;stroke-linejoin:bevel;stroke-miterlimit:4;stroke-dasharray:none;stroke-dashoffset:0;stroke-opacity:1"
       d="m -82.866119,-1106.5052 0,35.4336 17.716797,0 0,-17.7168 17.714844,0 0,17.7168 885.828118,0 0,-35.4336 -921.259759,0 z"
       id="path36240" />
    <path
       style="opacity:0.8;fill:#00ff00;fill-opacity:0.26258994;fill-rule:nonzero;stroke:none;stroke-width:7.08661413;stroke-linecap:butt;stroke-linejoin:bevel;stroke-miterlimit:4;stroke-dasharray:none;stroke-dashoffset:0;stroke-opacity:1"
       d="m -82.866119,-1145.4821 0,35.4336 885.828109,0 0,-17.7168 17.71681,0 0,17.7168 17.71483,0 0,-35.4336 -921.259749,0 z"
       id="path36242"
       inkscape:connector-curvature="0" />
    <path
       inkscape:connector-curvature="0"
       id="path36248"
       d="m -82.866119,-1067.5282 0,35.4335 885.828109,0 0,-17.7167 17.71681,0 0,17.7167 17.71483,0 0,-35.4335 -921.259749,0 z"
       style="opacity:0.8;fill:#00ff00;fill-opacity:0.26258994;fill-rule:nonzero;stroke:none;stroke-width:7.08661413;stroke-linecap:butt;stroke-linejoin:bevel;stroke-miterlimit:4;stroke-dasharray:none;stroke-dashoffset:0;stroke-opacity:1" />
    <g
       id="g36437">
      <path
         inkscape:connector-curvature="0"
         style="opacity:0.8;fill:#00ff00;fill-opacity:0.26258994;fill-rule:nonzero;stroke:none;stroke-width:7.08661413;stroke-linecap:butt;stroke-linejoin:bevel;stroke-miterlimit:4;stroke-dasharray:none;stroke-dashoffset:0;stroke-opacity:1"
         d="m -82.866119,-1028.5514 0,35.43365 17.716797,0 0,-17.71675 17.714844,0 0,17.71675 885.828118,0 0,-35.43365 -921.259759,0 z"
         id="path36246" />
      <path
         id="path36252"
         d="m -82.866119,-950.59754 0,35.4336 17.716797,0 0,-17.7168 17.714844,0 0,17.7168 885.828118,0 0,-35.4336 -921.259759,0 z"
         style="opacity:0.8;fill:#00ff00;fill-opacity:0.26258994;fill-rule:nonzero;stroke:none;stroke-width:7.08661413;stroke-linecap:butt;stroke-linejoin:bevel;stroke-miterlimit:4;stroke-dasharray:none;stroke-dashoffset:0;stroke-opacity:1"
         inkscape:connector-curvature="0" />
      <path
         inkscape:connector-curvature="0"
         id="path36254"
         d="m -82.866119,-989.57444 0,35.4336 885.828109,0 0,-17.7168 17.71681,0 0,17.7168 17.71483,0 0,-35.4336 -921.259749,0 z"
         style="opacity:0.8;fill:#00ff00;fill-opacity:0.26258994;fill-rule:nonzero;stroke:none;stroke-width:7.08661413;stroke-linecap:butt;stroke-linejoin:bevel;stroke-miterlimit:4;stroke-dasharray:none;stroke-dashoffset:0;stroke-opacity:1" />
      <path
         inkscape:connector-curvature="0"
         style="opacity:0.8;fill:#00ff00;fill-opacity:0.26258994;fill-rule:nonzero;stroke:none;stroke-width:7.08661413;stroke-linecap:butt;stroke-linejoin:bevel;stroke-miterlimit:4;stroke-dasharray:none;stroke-dashoffset:0;stroke-opacity:1"
         d="m -82.866119,-872.64373 0,35.4336 17.716797,0 0,-17.7168 17.714844,0 0,17.7168 885.828118,0 0,-35.4336 -921.259759,0 z"
         id="path36258" />
      <path
         style="opacity:0.8;fill:#00ff00;fill-opacity:0.26258994;fill-rule:nonzero;stroke:none;stroke-width:7.08661413;stroke-linecap:butt;stroke-linejoin:bevel;stroke-miterlimit:4;stroke-dasharray:none;stroke-dashoffset:0;stroke-opacity:1"
         d="m -82.866119,-911.62063 0,35.4336 885.828109,0 0,-17.7168 17.71681,0 0,17.7168 17.71483,0 0,-35.4336 -921.259749,0 z"
         id="path36260"
         inkscape:connector-curvature="0" />
    </g>
    <path
       inkscape:connector-curvature="0"
       id="path36463"
       d="m 989.13685,-1563.5489 0,35.4336 885.82815,0 0,-17.7168 17.7168,0 0,17.7168 17.7148,0 0,-35.4336 -921.25975,0 z"
       style="opacity:0.8;fill:#00ff00;fill-opacity:0.26258994;fill-rule:nonzero;stroke:none;stroke-width:7.08661413;stroke-linecap:butt;stroke-linejoin:bevel;stroke-miterlimit:4;stroke-dasharray:none;stroke-dashoffset:0;stroke-opacity:1" />
    <path
       inkscape:connector-curvature="0"
       id="path36465"
       d="m 950.12293,-633.63281 35.4336,0 0,-885.82799 -17.7168,0 0,-17.7168 17.7168,0 0,-17.7149 -35.4336,0 0,921.25969 z"
       style="opacity:0.8;fill:#00ff00;fill-opacity:0.26258994;fill-rule:nonzero;stroke:none;stroke-width:7.08661413;stroke-linecap:butt;stroke-linejoin:bevel;stroke-miterlimit:4;stroke-dasharray:none;stroke-dashoffset:0;stroke-opacity:1" />
    <path
       id="path36467"
       d="m 953.08719,-1558.7243 0,35.4336 17.71679,0 0,-17.7168 17.71485,0 0,17.7168 885.82807,0 0,-35.4336 -921.25971,0 z"
       style="opacity:0.8;fill:#00ff00;fill-opacity:0.26258994;fill-rule:nonzero;stroke:none;stroke-width:7.08661413;stroke-linecap:butt;stroke-linejoin:bevel;stroke-miterlimit:4;stroke-dasharray:none;stroke-dashoffset:0;stroke-opacity:1"
       inkscape:connector-curvature="0" />
    <path
       inkscape:connector-curvature="0"
       id="path36469"
       d="m 988.09352,-2533.9257 -17.7149,0 0,-35.4336 -17.7167,0 0,956.6934 17.7167,0 0,-35.4336 17.7149,0 0,-885.8262 z"
       style="opacity:0.8;fill:#00ff00;fill-opacity:0.26258994;fill-rule:nonzero;stroke:none;stroke-width:7.08661413;stroke-linecap:butt;stroke-linejoin:bevel;stroke-miterlimit:4;stroke-dasharray:none;stroke-dashoffset:0;stroke-opacity:1" />
  </g>
</svg>
