<?xml version="1.0" standalone="no"?>
<!DOCTYPE svg PUBLIC "-//W3C//DTD SVG 1.1//EN" "http://www.w3.org/Graphics/SVG/1.1/DTD/svg11.dtd">
<svg width="147" height="6" viewBox="8 -8 147 6" xmlns="http://www.w3.org/2000/svg" version="1.1">
<title>OpenSCAD Model</title>
<path d="
M 124.867,-2 L 126.839,-5 L 128.811,-2 L 131.811,-2 L 133.783,-5 L 135.756,-2
 L 138.756,-2 L 140.728,-5 L 142.7,-2 L 145.7,-2 L 147.672,-5 L 149.644,-2
 L 152.644,-2 L 154.617,-5 L 154.617,-8 L 8.78333,-8 L 8.78333,-5 L 10.7556,-2
 L 13.7556,-2 L 15.7278,-5 L 17.7,-2 L 20.7,-2 L 22.6722,-5 L 24.6444,-2
 L 27.6444,-2 L 29.6167,-5 L 31.5889,-2 L 34.5889,-2 L 36.5611,-5 L 38.5333,-2
 L 41.5333,-2 L 43.5056,-5 L 45.4778,-2 L 48.4778,-2 L 50.45,-5 L 52.4222,-2
 L 55.4222,-2 L 57.3944,-5 L 59.3667,-2 L 62.3667,-2 L 64.3389,-5 L 66.3111,-2
 L 69.3111,-2 L 71.2833,-5 L 73.2556,-2 L 76.2556,-2 L 78.2278,-5 L 80.2,-2
 L 83.2,-2 L 85.1722,-4.99998 L 87.1444,-2 L 90.1444,-2 L 92.1167,-5 L 94.0889,-2
 L 97.0889,-2 L 99.0611,-5 L 101.033,-2 L 104.033,-2 L 106.006,-5 L 107.978,-2
 L 110.978,-2 L 112.95,-5 L 114.922,-2 L 117.922,-2 L 119.894,-5 L 121.867,-2
 z
" stroke="black" fill="lightgray" stroke-width="0.5"/></svg>
